<?xml version="1.0" encoding="utf-8"?>
<!-- Generator: Adobe Illustrator 26.1.0, SVG Export Plug-In . SVG Version: 6.00 Build 0)  -->
<svg version="1.1" id="Camada_1" xmlns="http://www.w3.org/2000/svg" xmlns:xlink="http://www.w3.org/1999/xlink" x="0px" y="0px"
	 viewBox="0 0 200 200" style="enable-background:new 0 0 200 200;" xml:space="preserve">
<style type="text/css">
	.st0{fill:#FF0000;}
</style>
<path class="st0" d="M100,0C44.77,0,0,44.77,0,100s44.77,100,100,100s100-44.77,100-100S155.23,0,100,0z M127.6,99.86
	c0.01,2.43-0.82,4.31-2.35,5.85c-12.89,12.92-25.77,25.84-38.72,38.7c-3.39,3.37-8.3,3.25-11.6-0.03
	c-3.35-3.32-3.41-8.29,0.02-11.75c10.37-10.44,20.78-20.85,31.23-31.2c1.15-1.13,1.21-1.71,0.03-2.88
	c-10.41-10.31-20.76-20.67-31.1-31.06c-4.24-4.26-3.33-10.56,1.84-13.41c3.16-1.74,6.88-1.19,9.72,1.58
	c4.02,3.93,7.97,7.94,11.95,11.91c8.65,8.65,17.29,17.3,25.95,25.94C126.39,95.36,127.69,97.38,127.6,99.86z"/>
</svg>
