<?xml version="1.0" encoding="utf-8"?>
<!-- Generator: Adobe Illustrator 26.1.0, SVG Export Plug-In . SVG Version: 6.00 Build 0)  -->
<svg version="1.1" id="Camada_1" xmlns="http://www.w3.org/2000/svg" xmlns:xlink="http://www.w3.org/1999/xlink" x="0px" y="0px"
	 viewBox="0 0 200 199.63" style="enable-background:new 0 0 200 199.63;" xml:space="preserve">
<style type="text/css">
	.st0{fill:#FFFFFF;}
</style>
<g>
	<path d="M0,105.65c0-3.9,0-7.8,0-11.7c0.15-1.34,0.32-2.69,0.46-4.03c2.34-21.41,10.43-40.34,24.8-56.41
		C40.67,16.3,59.82,5.58,82.62,1.55C86.37,0.89,90.18,0.51,93.96,0c3.9,0,7.8,0,11.7,0c0.5,0.11,1,0.29,1.51,0.32
		c12.11,0.82,23.77,3.61,34.63,9.02c35.63,17.75,55,46.6,57.66,86.31c1.09,16.28-2.07,32.05-9.4,46.64
		c-17.72,35.26-46.45,54.58-85.85,57.13c-21.42,1.38-41.36-4.32-59.22-16.29C21.25,167.25,6.72,145.14,1.55,117
		C0.86,113.25,0.51,109.44,0,105.65z M104.66,23.21c-16.81,0.11-30.35,3.94-43.02,10.92c-1.96,1.08-4.18,2.21-5.44,3.93
		c-5.98,8.21-10.32,17.22-12.27,27.29c-0.25,1.28,0.03,2.02,0.88,2.89c10.51,10.8,21,21.63,31.46,32.49
		c0.88,0.92,1.7,1.15,2.91,0.92c12.54-2.45,25.09-4.88,37.65-7.25c1.19-0.23,1.74-0.72,2.15-1.84c5.28-14.5,10.59-29,15.95-43.47
		c0.46-1.25,0.22-1.96-0.68-2.86c-5.69-5.61-11.32-11.29-16.96-16.94C111.11,23.12,111.11,23.12,104.66,23.21z M145.1,129.54
		c8.95-0.83,17.48-1.7,26.02-2.4c7.55-0.62,7.58-0.52,10.72-7.53c4.56-10.17,6.76-20.94,8.06-31.93c0.09-0.78-0.16-1.66-0.44-2.43
		c-4.76-13.04-12.61-23.92-23.12-32.91c-0.58-0.5-1.46-0.83-2.23-0.89c-7.06-0.52-14.12-0.92-21.18-1.48
		c-1.43-0.11-1.86,0.44-2.3,1.62c-5.27,14.5-10.62,28.97-15.85,43.48c-0.31,0.87-0.18,2.2,0.28,3.01
		c5.53,9.84,11.19,19.61,16.72,29.45C142.68,129.16,143.52,130.28,145.1,129.54z M13.23,110.09c0.56,5.15,0.99,10.33,1.72,15.46
		c0.37,2.61,0.67,5.53,2.04,7.63c5.11,7.8,11.26,14.75,18.73,20.43c0.54,0.41,1.57,0.57,2.22,0.36c9.92-3.24,19.81-6.59,29.72-9.84
		c1.22-0.4,1.6-1.06,1.68-2.23c0.18-2.59,0.45-5.17,0.69-7.76c0.82-8.85,1.66-17.71,2.43-26.56c0.07-0.75-0.11-1.78-0.58-2.28
		c-10.52-10.96-21.1-21.88-31.7-32.76c-0.35-0.36-1.16-0.63-1.61-0.49c-6.96,2.24-13.54,5.24-19.32,9.8
		c-0.56,0.45-1.03,1.16-1.27,1.85C15.04,92.24,13.43,101,13.23,110.09z M39.59,164.99c0.19,2.66,0.45,4.93,0.48,7.2
		c0.02,1.32,0.54,2.11,1.54,2.88c8.55,6.63,17.97,11.61,28.21,15.03c6.15,2.06,12.37,3.92,19.03,2.9c2.63-0.4,5.3-0.5,7.94-0.84
		c5.8-0.75,11.55-1.64,16.92-4.19c1.29-0.61,1.44-1.3,1.11-2.57c-1.53-6.03-3-12.08-4.4-18.15c-0.28-1.2-0.78-1.88-1.93-2.37
		c-11.62-4.98-23.21-10.05-34.84-15c-0.9-0.38-2.17-0.41-3.11-0.1c-8.76,2.84-17.48,5.78-26.2,8.71c-1.59,0.53-3.82,0.7-4.56,1.82
		C38.98,161.52,39.59,163.65,39.59,164.99z M177.96,133.01c-0.47-0.04-0.72-0.1-0.97-0.08c-11.18,1.03-22.36,2.05-33.53,3.12
		c-0.56,0.05-1.19,0.48-1.61,0.91c-8.3,8.59-16.59,17.2-24.81,25.86c-0.5,0.53-0.79,1.64-0.63,2.35c1.42,6.26,2.99,12.48,4.44,18.73
		c0.28,1.2,0.79,1.59,2,1.39c4.41-0.73,8.86-1.27,13.25-2.11c7.01-1.35,13.99-2.92,20.09-6.92c9.52-6.23,16.64-14.77,23.01-24.02
		c0.24-0.35,0.4-0.85,0.37-1.26C179.07,145.04,178.52,139.11,177.96,133.01z M43.27,23.21c0.02,0.24,0.03,0.48,0.05,0.72
		c4.71,1.6,9.41,3.22,14.14,4.76c0.46,0.15,1.13-0.12,1.62-0.36c2.22-1.07,4.36-2.31,6.61-3.3c13.95-6.17,28.51-9.04,43.79-7.87
		c0.79,0.06,1.78,0.02,2.37-0.4c4.15-2.95,8.23-6.01,12.37-9.07C94.96,0.75,67.89,5.62,43.27,23.21z M190.57,72.07
		c-1.73-13.23-21.59-41.91-32.69-47.29c0.26,0.37,0.43,0.63,0.63,0.88c4.56,5.61,8,11.78,9.73,18.86c0.21,0.86,0.83,1.76,1.51,2.35
		c6.52,5.55,12.24,11.81,16.93,18.97C187.98,67.82,189.19,69.85,190.57,72.07z M7.35,116.54c0-1.27,0.03-2.17,0-3.07
		c-0.33-8.41-0.02-16.86,2.66-24.83c2.55-7.59,3.47-15.16,2.86-23.04c-0.1-1.23-0.01-2.48-0.01-3.72c-0.46,0.34-0.66,0.72-0.83,1.11
		C6.2,76.81,3.89,91.22,4.88,106.14C5.1,109.57,4.87,113.18,7.35,116.54z"/>
	<path class="st0" d="M104.66,23.21c6.45-0.09,6.45-0.09,12.61,6.07c5.65,5.65,11.28,11.33,16.96,16.94
		c0.91,0.9,1.14,1.61,0.68,2.86c-5.36,14.47-10.67,28.97-15.95,43.47c-0.4,1.11-0.95,1.61-2.15,1.84
		c-12.56,2.37-25.11,4.8-37.65,7.25c-1.2,0.24-2.02,0-2.91-0.92C65.81,89.87,55.32,79.05,44.81,68.25
		c-0.84-0.87-1.12-1.61-0.88-2.89c1.95-10.07,6.29-19.08,12.27-27.29c1.26-1.72,3.48-2.86,5.44-3.93
		C74.32,27.15,87.85,23.32,104.66,23.21z"/>
	<path class="st0" d="M145.1,129.54c-1.58,0.74-2.42-0.38-3.32-1.99c-5.53-9.84-11.19-19.61-16.72-29.45
		c-0.46-0.82-0.6-2.14-0.28-3.01c5.24-14.51,10.58-28.98,15.85-43.48c0.43-1.19,0.86-1.74,2.3-1.62c7.05,0.56,14.12,0.95,21.18,1.48
		c0.77,0.06,1.65,0.39,2.23,0.89c10.51,8.99,18.36,19.87,23.12,32.91c0.28,0.77,0.54,1.65,0.44,2.43
		c-1.3,10.99-3.5,21.77-8.06,31.93c-3.14,7.01-3.17,6.91-10.72,7.53C162.58,127.84,154.05,128.71,145.1,129.54z"/>
	<path class="st0" d="M13.23,110.09c0.2-9.09,1.82-17.85,4.74-26.39c0.24-0.69,0.7-1.41,1.27-1.85c5.78-4.56,12.37-7.56,19.32-9.8
		c0.45-0.14,1.26,0.13,1.61,0.49c10.6,10.89,21.17,21.8,31.7,32.76c0.48,0.5,0.65,1.53,0.58,2.28c-0.77,8.86-1.61,17.71-2.43,26.56
		c-0.24,2.59-0.51,5.17-0.69,7.76c-0.08,1.16-0.46,1.83-1.68,2.23c-9.92,3.25-19.8,6.6-29.72,9.84c-0.64,0.21-1.68,0.05-2.22-0.36
		c-7.46-5.68-13.62-12.63-18.73-20.43c-1.37-2.1-1.67-5.02-2.04-7.63C14.22,120.42,13.78,115.25,13.23,110.09z"/>
	<path class="st0" d="M39.59,164.99c0-1.34-0.61-3.47,0.18-4.69c0.74-1.12,2.97-1.29,4.56-1.82c8.73-2.93,17.45-5.87,26.2-8.71
		c0.94-0.3,2.21-0.28,3.11,0.1c11.63,4.96,23.22,10.02,34.84,15c1.15,0.49,1.66,1.17,1.93,2.37c1.4,6.06,2.87,12.11,4.4,18.15
		c0.32,1.27,0.17,1.96-1.11,2.57c-5.36,2.56-11.12,3.44-16.92,4.19c-2.64,0.34-5.31,0.43-7.94,0.84c-6.66,1.02-12.88-0.84-19.03-2.9
		c-10.23-3.42-19.66-8.4-28.21-15.03c-1-0.78-1.52-1.57-1.54-2.88C40.04,169.92,39.78,167.65,39.59,164.99z"/>
	<path class="st0" d="M177.96,133.01c0.56,6.1,1.11,12.03,1.62,17.97c0.04,0.41-0.13,0.91-0.37,1.26
		c-6.37,9.25-13.5,17.79-23.01,24.02c-6.1,4-13.08,5.56-20.09,6.92c-4.39,0.85-8.84,1.38-13.25,2.11c-1.21,0.2-1.72-0.19-2-1.39
		c-1.45-6.25-3.02-12.47-4.44-18.73c-0.16-0.72,0.13-1.83,0.63-2.35c8.22-8.66,16.51-17.27,24.81-25.86
		c0.41-0.43,1.04-0.85,1.61-0.91c11.17-1.08,22.35-2.1,33.53-3.12C177.24,132.91,177.5,132.97,177.96,133.01z"/>
	<path class="st0" d="M43.27,23.21C67.89,5.62,94.96,0.75,124.22,7.7c-4.14,3.06-8.22,6.12-12.37,9.07
		c-0.59,0.42-1.59,0.46-2.37,0.4c-15.28-1.18-29.84,1.7-43.79,7.87c-2.25,1-4.39,2.23-6.61,3.3c-0.49,0.24-1.16,0.51-1.62,0.36
		c-4.73-1.54-9.43-3.16-14.14-4.76C43.3,23.7,43.29,23.46,43.27,23.21z"/>
	<path class="st0" d="M190.57,72.07c-1.38-2.22-2.59-4.26-3.89-6.23c-4.69-7.17-10.41-13.43-16.93-18.97
		c-0.69-0.58-1.3-1.49-1.51-2.35c-1.73-7.08-5.17-13.25-9.73-18.86c-0.2-0.24-0.36-0.51-0.63-0.88
		C168.97,30.16,188.83,58.84,190.57,72.07z"/>
	<path class="st0" d="M7.35,116.54c-2.48-3.36-2.25-6.98-2.47-10.4C3.89,91.22,6.2,76.81,12.02,63c0.17-0.39,0.37-0.77,0.83-1.11
		c0,1.24-0.08,2.49,0.01,3.72c0.61,7.88-0.31,15.45-2.86,23.04c-2.68,7.96-2.99,16.42-2.66,24.83
		C7.38,114.37,7.35,115.27,7.35,116.54z"/>
</g>
</svg>
